<?xml version="1.0" encoding="UTF-8"?>
<svg width="256px" height="256px" viewBox="0 0 256 256" version="1.1" xmlns="http://www.w3.org/2000/svg" xmlns:xlink="http://www.w3.org/1999/xlink">
    <title>favicon</title>
    <g id="favicon" stroke="none" stroke-width="1" fill="none" fill-rule="evenodd">
        <g id="Group-11" transform="translate(8.000000, 8.000000)">
            <circle id="Oval-Copy-2" fill="#FFFFFF" cx="120" cy="120" r="120"></circle>
            <g id="logo-coin" transform="translate(14.000000, 14.000000)" fill="#131313" fill-rule="nonzero">
                <path d="M107.370874,0 C166.67017,0 214.741748,48.0715776 214.741748,107.370874 C214.741748,166.67017 166.67017,214.741748 107.370874,214.741748 C48.0715776,214.741748 0,166.67017 0,107.370874 C0,48.0715776 48.0715776,0 107.370874,0 Z M107.370874,10.0660194 C53.6308868,10.0660194 10.0660194,53.6308868 10.0660194,107.370874 C10.0660194,161.110861 53.6308868,204.675728 107.370874,204.675728 C161.110861,204.675728 204.675728,161.110861 204.675728,107.370874 C204.675728,53.6308868 161.110861,10.0660194 107.370874,10.0660194 Z M145.080826,40.2640777 L148.139269,48.5118405 C137.052413,52.6357215 132.273596,58.6340944 132.273596,68.9437977 L132.273596,68.9437977 L132.273596,76.2543147 C143.93391,77.5664586 154.447308,80.0032977 163.240332,83.3773824 C179.106005,89.3757552 187.899029,97.8109671 187.899029,107.370874 C187.899029,116.93078 179.106005,125.365992 163.240332,131.364365 C154.256155,134.73845 143.742757,137.175289 132.273596,138.487433 L132.273596,138.487433 L132.273596,145.79795 C132.273596,159.856636 125.200946,169.229094 110.673341,174.47767 L110.673341,174.47767 L107.614899,166.229907 C118.701755,162.106026 123.480572,156.107653 123.480572,145.79795 L123.480572,145.79795 L123.480572,139.237229 C118.701755,139.612128 113.922937,139.799577 109.14412,139.799577 C104.365303,139.799577 99.3953327,139.612128 94.8076682,139.237229 L94.8076682,139.237229 L94.8076682,145.79795 C94.8076682,159.856636 87.5438659,169.229094 73.0162612,174.47767 L73.0162612,174.47767 L69.9578183,166.229907 C81.0446743,162.106026 85.8234916,156.107653 85.8234916,145.79795 L85.8234916,145.79795 L85.8234916,138.487433 C74.1631774,137.175289 63.6497794,134.73845 54.8567555,131.364365 C38.9910822,125.365992 30.1980583,116.743331 30.1980583,107.370874 C30.1980583,97.9984162 38.9910822,89.3757552 54.8567555,83.3773824 C63.8409322,80.0032977 74.3543301,77.5664586 85.8234916,76.2543147 L85.8234916,76.2543147 L85.8234916,68.9437977 C85.8234916,54.8851115 92.8961412,45.5126539 107.614899,40.2640777 L107.614899,40.2640777 L110.673341,48.5118405 C99.5864854,52.6357215 94.8076682,58.6340944 94.8076682,68.9437977 L94.8076682,68.9437977 L94.8076682,75.5045181 C99.5864854,75.1296199 104.365303,74.9421705 109.14412,74.9421705 C113.922937,74.9421705 118.892907,75.1296199 123.480572,75.5045181 L123.480572,75.5045181 L123.480572,68.9437977 C123.480572,54.8851115 130.553222,45.5126539 145.080826,40.2640777 L145.080826,40.2640777 Z M109.14412,83.7522809 C104.17415,83.7522809 99.3953327,83.93973 94.8076682,84.3146281 L94.8076682,84.3146281 L94.8076682,130.427119 C99.3953327,130.802018 104.365303,130.989467 109.14412,130.989467 C114.11409,130.989467 118.892907,130.802018 123.480572,130.427119 L123.480572,130.427119 L123.480572,84.3146281 C118.892907,83.93973 113.922937,83.7522809 109.14412,83.7522809 Z M85.8234916,85.0644248 C75.5012463,86.376569 65.9436115,88.6259586 58.1063514,91.6251452 C46.2548842,96.1239247 39.1822349,101.934849 39.1822349,107.370874 C39.1822349,112.806899 46.2548842,118.617823 58.1063514,123.116602 C66.1347642,126.115789 75.5012463,128.365179 85.8234916,129.677323 L85.8234916,129.677323 L85.8234916,85.0644248 Z M132.273596,85.0644248 L132.273596,129.677323 C142.595841,128.365179 152.153476,126.115789 159.990736,123.116602 C171.842203,118.617823 178.914852,112.806899 178.914852,107.370874 C178.914852,101.934849 171.842203,96.1239247 159.990736,91.6251452 C151.962323,88.6259586 142.595841,86.376569 132.273596,85.0644248 L132.273596,85.0644248 Z" id="Combined-Shape"></path>
            </g>
        </g>
    </g>
</svg>