<?xml version="1.0" encoding="UTF-8"?>
<svg width="176px" height="32px" viewBox="0 0 176 32" version="1.1" xmlns="http://www.w3.org/2000/svg" xmlns:xlink="http://www.w3.org/1999/xlink">
    <title>logo</title>
    <g id="logo" stroke="none" stroke-width="1" fill="none" fill-rule="evenodd">
        <g id="Group" transform="translate(41.000000, 1.000000)" fill="#131415" fill-rule="nonzero">
            <path d="M60.8499528,2.84400948 C59.5168233,2.84400948 58.3614444,3.28838596 57.5319417,4.05863852 L57.5319417,2.84400948 L56.139562,2.3403828 L56.139562,12.7980426 L57.5319417,12.7980426 L57.5319417,7.25814918 C57.5319417,5.45101816 58.9243213,4.14751382 60.8499528,4.14751382 C62.7755842,4.14751382 64.1679638,5.45101816 64.1679638,7.25814918 L64.1679638,12.7684176 L65.5603435,12.7684176 L65.5603435,7.25814918 C65.5603435,4.71039069 63.5754618,2.84400948 60.8499528,2.84400948 Z" id="Path"></path>
            <path d="M49.50354,2.84400948 C46.4225297,2.84400948 44.2006473,4.94739148 44.2006473,7.82102606 C44.2006473,10.6946606 46.4225297,12.7980426 49.50354,12.7980426 C52.5845502,12.7980426 54.8064326,10.6946606 54.8064326,7.82102606 C54.8064326,4.94739148 52.5845502,2.84400948 49.50354,2.84400948 Z M49.50354,11.4649132 C47.2224074,11.4649132 45.5930269,9.92440808 45.5930269,7.82102606 C45.5930269,5.71764405 47.2520324,4.17713892 49.50354,4.17713892 C51.7846726,4.17713892 53.414053,5.71764405 53.414053,7.82102606 C53.414053,9.92440808 51.7550474,11.4649132 49.50354,11.4649132 Z" id="Shape"></path>
            <path d="M43.6673955,4.08826362 L44.1117719,2.84400948 L40.2308841,2.84400948 L40.2308841,0.503626678 L38.8385044,-2.73648683e-14 L38.8385044,2.84400948 L37.4164997,2.84400948 L36.9721232,4.08826362 L38.8385044,4.08826362 L38.8385044,8.91715468 C38.8385044,11.2279124 40.1420088,12.7980426 42.6601422,12.7980426 C43.1341437,12.7980426 43.6377704,12.7387924 44.1117719,12.590667 L43.6377704,11.2871626 C43.3415194,11.3760379 42.9860183,11.405663 42.6601422,11.405663 C41.0307617,11.405663 40.2308841,10.5761603 40.2308841,8.91715468 L40.2308841,4.08826362 L43.6673955,4.08826362 Z" id="Path"></path>
            <polygon id="Path" points="31.7581058 10.1614089 29.0918469 2.84400948 28.3808445 2.84400948 25.7442108 10.1614089 23.0779519 2.84400948 21.5670719 2.84400948 25.1813339 12.7980426 26.3070877 12.7980426 28.7363458 6.04352014 31.1952289 12.7980426 32.3209827 12.7980426 35.9056197 2.84400948 34.3947396 2.84400948"></polygon>
            <path d="M16.2345541,2.84400948 C13.1535438,2.84400948 10.9316614,4.94739148 10.9316614,7.82102606 C10.9316614,10.6946606 13.1535438,12.7980426 16.2345541,12.7980426 C18.0416851,12.7980426 19.5525651,12.0870402 20.5005683,10.9020363 L19.1081887,10.3984097 C18.3971863,11.0797869 17.4195581,11.4649132 16.2641792,11.4649132 C14.2200474,11.4649132 12.7091673,10.2502842 12.4129163,8.47277823 L21.5374467,8.47277823 C21.5670719,8.26540251 21.5670719,8.02840178 21.5670719,7.82102606 C21.5374467,4.94739148 19.3155644,2.84400948 16.2345541,2.84400948 Z M12.3536662,7.22852408 C12.6499171,5.42139306 14.1607972,4.17713892 16.2345541,4.17713892 C18.308311,4.17713892 19.819191,5.42139306 20.115442,7.22852408 L12.3536662,7.22852408 Z" id="Shape"></path>
            <path d="M4.71039069,2.84400948 C3.37726126,2.84400948 2.22188241,3.28838596 1.39237964,4.05863852 L1.39237964,2.84400948 L-1.09459473e-13,2.3403828 L-1.09459473e-13,12.7980426 L1.39237964,12.7980426 L1.39237964,7.25814918 C1.39237964,5.45101816 2.78475928,4.14751382 4.71039069,4.14751382 C6.63602211,4.14751382 8.02840178,5.45101816 8.02840178,7.25814918 L8.02840178,12.7684176 L9.42078142,12.7684176 L9.42078142,7.25814918 C9.42078142,4.71039069 7.43589978,2.84400948 4.71039069,2.84400948 Z" id="Path"></path>
        </g>
        <path d="M30.159978,10.9710513 C28.364922,10.268969 26.2186593,9.7619096 23.838259,9.4888776 L23.838259,7.96769934 C23.838259,5.82244795 24.8138329,4.57430168 27.0771644,3.71620111 L26.4527971,2 C23.4870523,3.09212798 22.0432029,5.04235653 22.0432029,7.96769934 L22.0432029,9.33285932 C21.106652,9.25485018 20.0920551,9.21584561 19.1164812,9.21584561 C18.1409072,9.21584561 17.1653333,9.25485018 16.1897595,9.33285932 L16.1897595,7.96769934 C16.1897595,5.82244795 17.1653333,4.57430168 19.4286649,3.71620111 L18.8042975,2 C15.7995299,3.09212798 14.3556805,5.04235653 14.3556805,7.96769934 L14.3556805,9.4888776 C12.0143031,9.7619096 9.86804041,10.268969 8.03396144,10.9710513 C4.79505602,12.2191976 3,14.0134078 3,15.9636364 C3,17.9138649 4.79505602,19.7080751 8.03396144,20.9562214 C9.82901745,21.6583037 11.9752801,22.1653631 14.3556805,22.4383951 L14.3556805,23.9595734 C14.3556805,26.1048248 13.3801065,27.3529711 11.1167751,28.2110716 L11.7411424,29.9272727 C14.7068871,28.8351447 16.1897595,26.8849162 16.1897595,23.9595734 L16.1897595,22.5944134 C17.1263104,22.6724226 18.1409072,22.7114271 19.1164812,22.7114271 C20.0920551,22.7114271 21.067629,22.6724226 22.0432029,22.5944134 L22.0432029,23.9595734 C22.0432029,26.1048248 21.067629,27.3529711 18.8042975,28.2110716 L19.4286649,29.9272727 C22.3944096,28.8351447 23.838259,26.8849162 23.838259,23.9595734 L23.838259,22.4383951 C26.1796364,22.1653631 28.325899,21.6583037 30.159978,20.9562214 C33.3988834,19.7080751 35.1939394,17.9528695 35.1939394,15.9636364 C35.1939394,13.9744032 33.3988834,12.2191976 30.159978,10.9710513 Z M14.3556805,20.6051803 C12.2484408,20.3321483 10.3363159,19.8640934 8.6973517,19.2400203 C6.27792838,18.3039106 4.83407897,17.0947689 4.83407897,15.9636364 C4.83407897,14.8325038 6.27792838,13.6233621 8.6973517,12.6872524 C10.2972929,12.0631793 12.2484408,11.5951244 14.3556805,11.3220925 L14.3556805,20.6051803 Z M22.0432029,20.7611986 C21.106652,20.8392077 20.131078,20.8782123 19.1164812,20.8782123 C18.1409072,20.8782123 17.1263104,20.8392077 16.1897595,20.7611986 L16.1897595,11.1660741 C17.1263104,11.088065 18.1018843,11.0490605 19.1164812,11.0490605 C20.0920551,11.0490605 21.106652,11.088065 22.0432029,11.1660741 L22.0432029,20.7611986 Z M29.4965877,19.2400203 C27.8966464,19.8640934 25.9454986,20.3321483 23.838259,20.6051803 L23.838259,11.3220925 C25.9454986,11.5951244 27.8576235,12.0631793 29.4965877,12.6872524 C31.916011,13.6233621 33.3598604,14.8325038 33.3598604,15.9636364 C33.3598604,17.0947689 31.916011,18.3039106 29.4965877,19.2400203 Z" id="Shape" fill="#131415" fill-rule="nonzero"></path>
        <path d="M47.6333368,28.3055556 L47.6333368,27.4166667 L41.9916503,27.4166667 L41.9916503,23.8055556 L46.8426966,23.8055556 L46.8426966,22.9305556 L41.9916503,22.9305556 L41.9916503,19.4722222 L47.4323266,19.4722222 L47.4323266,18.5833333 L41,18.5833333 L41,28.3055556 L47.6333368,28.3055556 Z M52.403979,28.3055556 L55.5397382,21 L54.6016905,21 L51.9349552,27.2222222 L49.2950211,21 L48.3033708,21 L51.4257293,28.3055556 L52.403979,28.3055556 Z M59.5599423,28.375 C61.623647,28.375 63.1379239,26.8194444 63.1379239,24.6527778 C63.1379239,22.4861111 61.623647,20.9444444 59.5599423,20.9444444 C57.4962375,20.9444444 55.9685599,22.4861111 55.9685599,24.6527778 C55.9685599,26.8194444 57.4962375,28.375 59.5599423,28.375 Z M59.5599423,27.5 C58.0590661,27.5 56.9334089,26.3611111 56.9334089,24.6527778 C56.9334089,22.9444444 58.0590661,21.8055556 59.5599423,21.8055556 C61.0608185,21.8055556 62.1730749,22.9444444 62.1730749,24.6527778 C62.1730749,26.3611111 61.0608185,27.5 59.5599423,27.5 Z M66.0324709,28.3055556 L66.0324709,18 L65.0810226,18 L65.0810226,28.3055556 L66.0324709,28.3055556 Z M71.5937532,28.375 C72.7194104,28.375 73.6306566,27.8611111 74.1264818,26.9722222 L74.1264818,28.3055556 L75.0377281,28.3055556 L75.0377281,21 L74.0862798,21 L74.0862798,24.8333333 C74.0862798,26.5 73.1616328,27.4861111 71.687558,27.4861111 C70.3474899,27.4861111 69.5702505,26.6944444 69.5702505,25.1388889 L69.5702505,21 L68.6188022,21 L68.6188022,25.2361111 C68.6188022,27.3333333 69.7980621,28.375 71.5937532,28.375 Z M79.9289764,28.375 C80.4784043,28.375 81.0412329,28.2083333 81.4164519,27.8611111 L81.0814349,27.1527778 C80.8134213,27.4027778 80.4248016,27.5277778 80.0361818,27.5277778 C79.2455417,27.5277778 78.8167199,27.0555556 78.8167199,26.1944444 L78.8167199,21.8333333 L80.9608288,21.8333333 L80.9608288,21 L78.8167199,21 L78.8167199,19.4027778 L77.8652716,19.4027778 L77.8652716,21 L76.6056077,21 L76.6056077,21.8333333 L77.8652716,21.8333333 L77.8652716,26.25 C77.8652716,27.5972222 78.602309,28.375 79.9289764,28.375 Z M83.6275642,19.4027778 C84.0295846,19.4027778 84.3243995,19.0833333 84.3243995,18.6805556 C84.3243995,18.3055556 84.0161839,18 83.6275642,18 C83.2389444,18 82.9307288,18.3194444 82.9307288,18.6944444 C82.9307288,19.0833333 83.2389444,19.4027778 83.6275642,19.4027778 Z M84.096588,28.3055556 L84.096588,21 L83.1451397,21 L83.1451397,28.3055556 L84.096588,28.3055556 Z M89.631069,28.375 C91.6947737,28.375 93.2090506,26.8194444 93.2090506,24.6527778 C93.2090506,22.4861111 91.6947737,20.9444444 89.631069,20.9444444 C87.5673642,20.9444444 86.0396866,22.4861111 86.0396866,24.6527778 C86.0396866,26.8194444 87.5673642,28.375 89.631069,28.375 Z M89.631069,27.5 C88.1301928,27.5 87.0045356,26.3611111 87.0045356,24.6527778 C87.0045356,22.9444444 88.1301928,21.8055556 89.631069,21.8055556 C91.1319452,21.8055556 92.2442016,22.9444444 92.2442016,24.6527778 C92.2442016,26.3611111 91.1319452,27.5 89.631069,27.5 Z M96.1035976,28.3055556 L96.1035976,24.4722222 C96.1035976,22.8055556 97.0550459,21.8333333 98.5693228,21.8333333 C99.9093908,21.8333333 100.68663,22.625 100.68663,24.1666667 L100.68663,28.3055556 L101.638079,28.3055556 L101.638079,24.0694444 C101.638079,21.9722222 100.458819,20.9444444 98.7435316,20.9444444 C97.5240697,20.9444444 96.5726214,21.4583333 96.0633955,22.3472222 L96.0633955,21 L95.1521493,21 L95.1521493,28.3055556 L96.1035976,28.3055556 Z M108.928049,28.3055556 L108.928049,25.2361111 L111.447377,25.2361111 C113.832698,25.2361111 115.279971,23.9861111 115.279971,21.9166667 C115.279971,19.8333333 113.832698,18.5833333 111.447377,18.5833333 L107.936398,18.5833333 L107.936398,28.3055556 L108.928049,28.3055556 Z M111.420575,24.3333333 L108.928049,24.3333333 L108.928049,19.4722222 L111.420575,19.4722222 C113.29667,19.4722222 114.288321,20.3611111 114.288321,21.9166667 C114.288321,23.4444444 113.29667,24.3333333 111.420575,24.3333333 Z M118.000309,28.3055556 L118.000309,24.5833333 C118.000309,22.8611111 118.898155,21.8888889 120.37223,21.8888889 C120.439233,21.8888889 120.519637,21.9027778 120.600041,21.9027778 L120.600041,20.9444444 C119.300175,20.9444444 118.40233,21.4583333 117.960107,22.4305556 L117.960107,21 L117.048861,21 L117.048861,28.3055556 L118.000309,28.3055556 Z M125.129471,28.375 C127.193176,28.375 128.707453,26.8194444 128.707453,24.6527778 C128.707453,22.4861111 127.193176,20.9444444 125.129471,20.9444444 C123.065766,20.9444444 121.538089,22.4861111 121.538089,24.6527778 C121.538089,26.8194444 123.065766,28.375 125.129471,28.375 Z M125.129471,27.5 C123.628595,27.5 122.502938,26.3611111 122.502938,24.6527778 C122.502938,22.9444444 123.628595,21.8055556 125.129471,21.8055556 C126.630347,21.8055556 127.742604,22.9444444 127.742604,24.6527778 C127.742604,26.3611111 126.630347,27.5 125.129471,27.5 Z M131.602,31 L131.602,26.9305556 C132.19163,27.875 133.156479,28.375 134.282136,28.375 C136.292238,28.375 137.793114,26.875 137.793114,24.6527778 C137.793114,22.4444444 136.292238,20.9444444 134.282136,20.9444444 C133.116277,20.9444444 132.138027,21.4722222 131.561798,22.4444444 L131.561798,21 L130.650551,21 L130.650551,31 L131.602,31 Z M134.215132,27.5 C132.714256,27.5 131.588599,26.3611111 131.588599,24.6527778 C131.588599,22.9583333 132.714256,21.8055556 134.215132,21.8055556 C135.702608,21.8055556 136.841666,22.9583333 136.841666,24.6527778 C136.841666,26.3611111 135.702608,27.5 134.215132,27.5 Z M142.617359,28.375 C144.681064,28.375 146.195341,26.8194444 146.195341,24.6527778 C146.195341,22.4861111 144.681064,20.9444444 142.617359,20.9444444 C140.553654,20.9444444 139.025977,22.4861111 139.025977,24.6527778 C139.025977,26.8194444 140.553654,28.375 142.617359,28.375 Z M142.617359,27.5 C141.116483,27.5 139.990826,26.3611111 139.990826,24.6527778 C139.990826,22.9444444 141.116483,21.8055556 142.617359,21.8055556 C144.118235,21.8055556 145.230492,22.9444444 145.230492,24.6527778 C145.230492,26.3611111 144.118235,27.5 142.617359,27.5 Z M150.027935,28.375 C151.863828,28.375 152.935883,27.5555556 152.935883,26.2916667 C152.935883,23.4861111 148.366251,24.9722222 148.366251,23 C148.366251,22.3055556 148.929079,21.7916667 150.202144,21.7916667 C150.925781,21.7916667 151.662818,21.9722222 152.27925,22.4166667 L152.694671,21.625 C152.105041,21.2083333 151.11339,20.9444444 150.202144,20.9444444 C148.406453,20.9444444 147.414803,21.8333333 147.414803,23.0277778 C147.414803,24.4351852 148.499377,24.8009168 149.61176,25.0259157 L149.962731,25.0933407 C151.011022,25.2878863 151.984435,25.4412393 151.984435,26.3194444 C151.984435,27.0416667 151.435007,27.5138889 150.094939,27.5138889 C149.103288,27.5138889 148.15184,27.1527778 147.589011,26.6944444 L147.16019,27.4722222 C147.736419,27.9861111 148.862076,28.375 150.027935,28.375 Z M156.674673,28.375 C157.840532,28.375 158.671374,27.9166667 159.100196,27.1666667 L159.100196,28.3055556 L160.011442,28.3055556 L160.011442,23.7777778 C160.011442,21.8888889 158.97959,20.9444444 157.157097,20.9444444 C156.044841,20.9444444 154.999588,21.3055556 154.289352,21.9305556 L154.718173,22.6666667 C155.294403,22.1388889 156.152046,21.8055556 157.063292,21.8055556 C158.376559,21.8055556 159.059994,22.4861111 159.059994,23.7361111 L159.059994,24.1805556 L156.82208,24.1805556 C154.798577,24.1805556 154.101742,25.125 154.101742,26.25 C154.101742,27.5138889 155.079992,28.375 156.674673,28.375 Z M156.82208,27.5972222 C155.696423,27.5972222 155.03979,27.0694444 155.03979,26.2222222 C155.03979,25.4722222 155.482012,24.9166667 156.848882,24.9166667 L159.059994,24.9166667 L159.059994,26.1111111 C158.684775,27.0694444 157.894135,27.5972222 156.82208,27.5972222 Z M163.549222,28.3055556 L163.549222,18 L162.597773,18 L162.597773,28.3055556 L163.549222,28.3055556 Z M168.092052,28.375 C169.927946,28.375 171,27.5555556 171,26.2916667 C171,23.4861111 166.430368,24.9722222 166.430368,23 C166.430368,22.3055556 166.993197,21.7916667 168.266261,21.7916667 C168.989898,21.7916667 169.726935,21.9722222 170.343367,22.4166667 L170.758788,21.625 C170.169158,21.2083333 169.177507,20.9444444 168.266261,20.9444444 C166.47057,20.9444444 165.47892,21.8333333 165.47892,23.0277778 C165.47892,24.4351852 166.563494,24.8009168 167.675877,25.0259157 L168.026848,25.0933407 C169.075139,25.2878863 170.048552,25.4412393 170.048552,26.3194444 C170.048552,27.0416667 169.499124,27.5138889 168.159056,27.5138889 C167.167405,27.5138889 166.215957,27.1527778 165.653129,26.6944444 L165.224307,27.4722222 C165.800536,27.9861111 166.926193,28.375 168.092052,28.375 Z" id="EvolutionProposals" fill="#000000" fill-rule="nonzero"></path>
    </g>
</svg>